<svg width="621" height="759" viewBox="0 0 621 759" fill="none" xmlns="http://www.w3.org/2000/svg">
<g clip-path="url(#clip0_101_196)">
<path opacity="0.23" d="M492.6 290.5V236.9H392.3V183.4H468.8V129.8H158.8V183.4H226.3V237H83.3V290.6H144.6V344.2H0V397.8H201.7V451.4H107.1V505H247.1V558.6H153.8V612.2H442.7V558.6H380.1V505H599.3V451.4H489.6V397.8H535.3V344.2H447.2V290.6H492.6V290.5ZM334.2 344H257.6V290.4H334.2V344Z" fill="#A9DBED"/>
<path opacity="0.23" d="M99.3 129.3H43.9V182.9H99.3V129.3Z" fill="#A9DBED"/>
<path opacity="0.23" d="M620.3 236.9H564.9V290.5H620.3V236.9Z" fill="#A9DBED"/>
<path d="M266.6 638.7H162.6V662.7H266.6V638.7Z" fill="#26A8A1"/>
<path d="M131.2 638.7H82.6001V662.7H131.2V638.7Z" fill="#26A8A1"/>
<path d="M380 638.7H309.9V662.7H380V638.7Z" fill="#26A8A1"/>
<path d="M466.2 638.7H425.9V662.7H466.2V638.7Z" fill="#26A8A1"/>
<path d="M518.2 710.7H477.9V734.7H518.2V710.7Z" fill="#26A8A1"/>
<path d="M189.915 710.767H341.215V686.767H189.915V710.767Z" fill="#26A8A1"/>
<path d="M400.599 710.767H451.399V686.767H400.599V710.767Z" fill="#26A8A1"/>
<path d="M296.158 734.767H422.658V710.767H296.158V734.767Z" fill="#26A8A1"/>
<path d="M240.715 758.767H356.415V734.767H240.715V758.767Z" fill="#26A8A1"/>
<path d="M385.9 397.5H293.2V451.1H385.9V397.5Z" fill="#30B5B2"/>
<path d="M324 183.6H191.2V237.2H324V183.6Z" fill="#30B5B2"/>
<path d="M473.3 290.5H209.9V344.1H473.3V290.5Z" fill="#30B5B2"/>
<path d="M435.5 451.1H289.7V504.7H435.5V451.1Z" fill="#30B5B2"/>
<path d="M338.6 662.7H240.7V686.7H338.6V662.7Z" fill="#26A8A1"/>
<path d="M312 636.4H286.2V674.9H312V636.4Z" fill="#DBA974"/>
<path d="M339.1 693.4H263.6C263.6 676.5 277.3 662.7 294.3 662.7H339.1V693.4Z" fill="#DD3142"/>
<path d="M314.3 693.4C314.3 673 330.9 656.4 351.3 656.4C371.7 656.4 388.3 673 388.3 693.4H314.3Z" fill="#DD3142"/>
<path d="M388.3 698.7H263.6C262.1 698.7 260.9 697.5 260.9 696C260.9 694.5 262.1 693.3 263.6 693.3H388.3C389.8 693.3 391 694.5 391 696C391 697.5 389.8 698.7 388.3 698.7Z" fill="#212D47"/>
<path d="M353.3 665.5C357.884 665.5 361.6 664.246 361.6 662.7C361.6 661.153 357.884 659.9 353.3 659.9C348.716 659.9 345 661.153 345 662.7C345 664.246 348.716 665.5 353.3 665.5Z" fill="white"/>
<path d="M304.5 665.4C304.5 664.9 304.6 664.4 304.8 663.9C305.6 662.3 307.4 661.7 309 662.5" stroke="#D32A3B" stroke-width="3" stroke-miterlimit="10" stroke-linecap="round" stroke-linejoin="round"/>
<path d="M310.3 665.4C310.3 664.9 310.4 664.4 310.6 663.9C311.4 662.3 313.2 661.7 314.8 662.5" stroke="#D32A3B" stroke-width="3" stroke-miterlimit="10" stroke-linecap="round" stroke-linejoin="round"/>
<path d="M315.8 665.4C315.8 664.9 315.9 664.4 316.1 663.9C316.9 662.3 318.7 661.7 320.3 662.5" stroke="#D32A3B" stroke-width="3" stroke-miterlimit="10" stroke-linecap="round" stroke-linejoin="round"/>
<path d="M451.1 276.4H437.4C432.4 276.4 428.4 272.4 428.4 267.4V189.2C428.4 184.2 432.4 180.2 437.4 180.2H451.1C456.1 180.2 460.1 184.2 460.1 189.2V267.4C460.1 272.3 456.1 276.4 451.1 276.4Z" fill="#BCBCBC"/>
<path d="M459.8 276.4H446.1C441.1 276.4 437.1 272.4 437.1 267.4V189.2C437.1 184.2 441.1 180.2 446.1 180.2H459.8C464.8 180.2 468.8 184.2 468.8 189.2V267.4C468.8 272.3 464.8 276.4 459.8 276.4Z" fill="#F7F7F7"/>
<path d="M421.1 294.9V337.7C421.1 356.9 405.9 373.1 386.7 373.6C366.9 374.1 350.6 358.1 350.6 338.4V280C350.6 269.2 341.9 260.5 331.1 260.5C320.3 260.5 311.6 269.2 311.6 280V338.4C311.6 379.4 344.8 412.6 385.8 412.6C426.8 412.6 460 379.4 460 338.4V294.9H421.1Z" fill="#DD3142"/>
<path d="M421.1 294.9V337.7C421.1 356.9 405.9 373.1 386.7 373.6C366.9 374.1 350.6 358.1 350.6 338.4V280C350.6 269.2 341.9 260.5 331.1 260.5C320.3 260.5 311.6 269.2 311.6 280V338.4C311.6 379.4 344.8 412.6 385.8 412.6C426.8 412.6 460 379.4 460 338.4V294.9H421.1Z" fill="#DD3142"/>
<path d="M331.1 270.5C336.3 270.5 340.6 274.8 340.6 280V338.4C340.6 350.5 345.3 361.8 353.9 370.4C362.5 379 373.8 383.7 385.9 383.7C386.3 383.7 386.6 383.7 387 383.7C411.3 383.1 431.2 362.5 431.2 337.8V305L438.5 295H421.2V337.8C421.2 357 406 373.2 386.8 373.7C367 374.2 350.7 358.2 350.7 338.5V280.1C350.7 269.3 342 260.6 331.2 260.6C328.4 260.6 325.7 261.2 323.2 262.3C327.1 267.2 330 270.5 331.1 270.5Z" fill="#D82B45"/>
<path d="M324 438.5H270.9V648.1H324V438.5Z" fill="#212D47"/>
<path d="M324 636.4H270.9V648.1H324V636.4Z" fill="#2D3854"/>
<path d="M289.3 438.5H236.2V648.1H289.3V438.5Z" fill="#2D3854"/>
<path d="M275.6 636.4H249.8V674.9H275.6V636.4Z" fill="#DBA974"/>
<path d="M289.3 636.4H236.2V648.1H289.3V636.4Z" fill="#394663"/>
<path d="M320.5 470.9H235.3C225.1 470.9 216.8 462.6 216.8 452.4V436.4H339V452.4C339 462.6 330.7 470.9 320.5 470.9Z" fill="#2D3854"/>
<path d="M251.4 424.3H168.9C149.1 424.3 134.4 399.5 138.7 373.3L149.6 306.4C154 279.6 171.5 260.4 191.8 260.4H224.8L251.4 424.3Z" fill="#22314C"/>
<path d="M184 404.4C169.4 404.4 157.9 392 158.9 377.5L160.7 352.8H207.3L209.1 377.5C210.1 392 198.6 404.4 184 404.4Z" fill="#2D3854"/>
<path d="M339 414.8H216.8V442.5H339V414.8Z" fill="#DD3142"/>
<path d="M336.1 433H214.6C213 433 211.7 431.7 211.7 430.1V286.3C211.7 272 223.3 260.5 237.5 260.5H321.4C331.1 260.5 338.9 268.4 338.9 278V430.1C339 431.7 337.7 433 336.1 433Z" fill="#E53E46"/>
<path d="M292.7 287.6H270.7C265.6 287.6 261.5 283.5 261.5 278.4V260.6H307.9V272.4C307.9 280.8 301.1 287.6 292.7 287.6Z" fill="#DD3142"/>
<path d="M305.9 243.6L282.9 246.2L283.5 260.6H305.9C324.1 260.6 338.9 275.4 338.9 293.6V417.4C348.3 417.4 355.9 409.8 355.9 400.4V293.6C355.9 266 333.6 243.6 305.9 243.6Z" fill="#2D3854"/>
<path d="M346.6 290.8C346.6 269.7 329.5 252.6 308.4 252.6H291.2V243.6H283.5V260.6H305.9C324.1 260.6 338.9 275.4 338.9 293.6V417.4C341.7 417.4 344.3 416.7 346.6 415.6V290.8Z" fill="#25314C"/>
<path d="M291.2 279H272.2C266.4 279 261.7 274.3 261.7 268.5V213.4H301.7V268.5C301.7 274.3 297 279 291.2 279Z" fill="#DBA974"/>
<path opacity="0.76" d="M275.2 215.6H301.7V213.4H261.7V268.5C261.7 274.3 266.4 279 272.2 279H275.3V215.6H275.2Z" fill="#D19556"/>
<path d="M261.7 242.3C269.2 243.6 282.1 244.2 295.8 238.2C298 237.2 299.9 236.2 301.7 235V213.4H261.7V242.3Z" fill="#C7924E"/>
<path d="M233.5 245.4H217.3C208.9 245.4 202.2 252.2 202.2 260.5V264.6L211.2 261.2C225.5 261.2 237.2 270.9 237.2 285.2V401.7C237.2 410.4 244.2 417.4 252.9 417.4C261.6 417.4 268.6 410.4 268.6 401.7V280.3C268.4 261 252.8 245.4 233.5 245.4Z" fill="#2D3854"/>
<path d="M247.1 285.2V416.3C241.2 414 237.1 408.4 237.1 401.7V302.8C242.6 297.3 246.1 289.7 246.1 281.4C246.1 278.6 245.7 275.9 245 273.3C246.3 276.9 247.1 281 247.1 285.2Z" fill="#25314C"/>
<path d="M440 312.1C455.464 312.1 468 299.564 468 284.1C468 268.636 455.464 256.1 440 256.1C424.536 256.1 412 268.636 412 284.1C412 299.564 424.536 312.1 440 312.1Z" fill="#DBA974"/>
<path opacity="0.76" d="M451.8 302.8C434.2 302.8 419.9 288.5 419.9 270.9C419.9 268.4 420.2 266 420.7 263.7C415.3 268.8 411.9 276.1 411.9 284.1C411.9 299.6 424.4 312.1 439.9 312.1C449 312.1 457 307.8 462.2 301.1C459 302.2 455.5 302.8 451.8 302.8Z" fill="#D19556"/>
<path d="M302.8 693.4H227.3C227.3 676.5 241 662.7 258 662.7H302.8V693.4Z" fill="#DD3142"/>
<path d="M278 693.4C278 673 294.6 656.4 315 656.4C335.4 656.4 352 673 352 693.4H278Z" fill="#E53E46"/>
<path d="M352 698.7H227.3C225.8 698.7 224.6 697.5 224.6 696C224.6 694.5 225.8 693.3 227.3 693.3H352C353.5 693.3 354.7 694.5 354.7 696C354.6 697.5 353.4 698.7 352 698.7Z" fill="#212D47"/>
<path d="M326 665.5C330.584 665.5 334.3 664.246 334.3 662.7C334.3 661.153 330.584 659.9 326 659.9C321.416 659.9 317.7 661.153 317.7 662.7C317.7 664.246 321.416 665.5 326 665.5Z" fill="white"/>
<path d="M268.2 665.4C268.2 664.9 268.3 664.4 268.5 663.9C269.3 662.3 271.1 661.7 272.7 662.5" stroke="#D32A3B" stroke-width="3" stroke-miterlimit="10" stroke-linecap="round" stroke-linejoin="round"/>
<path d="M274 665.4C274 664.9 274.1 664.4 274.3 663.9C275.1 662.3 276.9 661.7 278.5 662.5" stroke="#D32A3B" stroke-width="3" stroke-miterlimit="10" stroke-linecap="round" stroke-linejoin="round"/>
<path d="M279.4 665.4C279.4 664.9 279.5 664.4 279.7 663.9C280.5 662.3 282.3 661.7 283.9 662.5" stroke="#D32A3B" stroke-width="3" stroke-miterlimit="10" stroke-linecap="round" stroke-linejoin="round"/>
<path d="M293.8 226.9C259.6 233.4 226.6 210.8 220.2 176.6L199.8 68.6L351.1 40.1L366.3 120.7C375.7 170 343.2 217.6 293.8 226.9Z" fill="#DBA974"/>
<path opacity="0.76" d="M261.7 176.6L241.3 68.6L352.5 47.6L351.1 40L199.8 68.5L220.2 176.5C226.7 210.7 259.6 233.2 293.8 226.8C297 226.2 300.2 225.4 303.2 224.5C282.5 217.5 266.1 199.7 261.7 176.6Z" fill="#D19556"/>
<path d="M353.8 48.1L348.3 16.5L198.3 53.8C193.6 55 190.7 59.5 191.6 64.3L210.5 164.7L235.3 160L223.7 83.1L353.8 48.1Z" fill="#3D2314"/>
<path d="M300.1 172.3C289.2 172.3 279 170.3 270.4 166.8C274.2 182.7 286 194.3 300.1 194.3C314.2 194.3 325.9 182.7 329.8 166.8C321.1 170.2 311 172.3 300.1 172.3Z" fill="white"/>
<path d="M268.3 129.3C267.5 125.1 270.3 121 274.5 120.3C278.7 119.5 282.8 122.3 283.5 126.5" stroke="#3F2E21" stroke-width="4" stroke-miterlimit="10" stroke-linecap="round" stroke-linejoin="round"/>
<path d="M255 115.5L281.3 102.4" stroke="#5A3825" stroke-width="8" stroke-miterlimit="10" stroke-linecap="round" stroke-linejoin="round"/>
<path d="M330.7 114.6C329.9 110.4 325.9 107.6 321.7 108.4C317.5 109.2 314.7 113.2 315.5 117.4" stroke="#3F2E21" stroke-width="4" stroke-miterlimit="10" stroke-linecap="round" stroke-linejoin="round"/>
<path d="M337.6 100.5L308.3 97.9" stroke="#5A3825" stroke-width="8" stroke-miterlimit="10" stroke-linecap="round" stroke-linejoin="round"/>
<path d="M344.8 54.2C346.3 60.4 357.8 102.5 357.8 102.5H362.8L352.1 45.7L344.8 54.2Z" fill="#3D2314"/>
<path d="M212.6 173.5C226.076 173.5 237 162.576 237 149.1C237 135.624 226.076 124.7 212.6 124.7C199.124 124.7 188.2 135.624 188.2 149.1C188.2 162.576 199.124 173.5 212.6 173.5Z" fill="#DBA974"/>
<path d="M216 161.9C223.069 161.9 228.8 156.169 228.8 149.1C228.8 142.031 223.069 136.3 216 136.3C208.931 136.3 203.2 142.031 203.2 149.1C203.2 156.169 208.931 161.9 216 161.9Z" fill="#D19556"/>
<path d="M364.2 0C376 30.7 360.7 65.1 330 76.8C299.3 88.6 264.9 73.3 253.2 42.6L364.2 0Z" fill="#5A3825"/>
<path d="M295 13.1C306.4 34.9 297.9 61.8 276.1 73.2C254.3 84.6 227.4 76.1 216 54.3L295 13.1Z" fill="#5A3825"/>
<path d="M237.1 302.8V285.2C237.1 270.9 225.5 261.2 211.1 261.2L202.1 264.6V260.5C202.1 258.1 202.7 255.8 203.7 253.7C207.4 252 211.5 251.1 215.9 251.1C221.5 251.1 226.7 252.6 231.2 255.3C237.8 259.2 242.8 265.6 244.9 273.1C245.6 275.7 246 278.4 246 281.2C246.1 289.7 242.6 297.3 237.1 302.8Z" fill="#25314C"/>
<path d="M249.7 474.4C265.44 474.4 278.2 461.64 278.2 445.9C278.2 430.16 265.44 417.4 249.7 417.4C233.96 417.4 221.2 430.16 221.2 445.9C221.2 461.64 233.96 474.4 249.7 474.4Z" fill="#DBA974"/>
<path d="M283.7 454.6L269.4 447.6C265.6 445.7 264 441.1 265.9 437.3L269.3 430.4L290.5 440.8C294.3 442.7 295.9 447.3 294 451.1C292.2 455 287.6 456.5 283.7 454.6Z" fill="#D19556"/>
<path d="M253.9 476.7L257.8 459C258.8 454.2 263.5 451.2 268.3 452.3L275.8 454C276.4 454.1 276.8 454.7 276.6 455.3L271.1 480.5C270.1 485.3 265.4 488.3 260.6 487.2C255.9 486.1 252.8 481.4 253.9 476.7Z" fill="#D19556"/>
<path d="M261.1 450.7C269.9 441.3 268.6 426.4 258.3 418.6C237.9 403.1 223.6 379.5 220.7 352.4C218.3 330.7 223.4 309.9 233.7 292.5C238 285.3 237.9 276 233.1 269.1C224.2 256.1 204.9 256.6 196.8 269.9C181.9 294.6 174.5 324.1 177.4 355C181.2 395.3 202.1 430.3 232.3 453.2C241.2 459.9 253.6 458.7 261.1 450.7Z" fill="#DD3142"/>
<path d="M233.8 292.5C236.5 288 237.4 282.8 236.6 277.8C232.4 282.2 228.1 286.4 226.9 288.4C215.2 308 210.3 330.5 212.8 353.3C215.9 381.5 230.7 407.7 253.5 425C255.9 426.8 263.1 434.8 266.5 440.2C268.1 432.4 265.2 423.9 258.3 418.6C237.9 403.1 223.6 379.5 220.7 352.4C218.4 330.6 223.4 309.9 233.8 292.5Z" fill="#D82B45"/>
<path d="M293.7 333.4C298.671 333.4 302.7 329.37 302.7 324.4C302.7 319.429 298.671 315.4 293.7 315.4C288.73 315.4 284.7 319.429 284.7 324.4C284.7 329.37 288.73 333.4 293.7 333.4Z" fill="#DD3142"/>
<path d="M277.2 355.7C279.685 355.7 281.7 353.685 281.7 351.2C281.7 348.715 279.685 346.7 277.2 346.7C274.715 346.7 272.7 348.715 272.7 351.2C272.7 353.685 274.715 355.7 277.2 355.7Z" fill="#DD3142"/>
<path d="M316.1 341.1C318.585 341.1 320.6 339.085 320.6 336.6C320.6 334.115 318.585 332.1 316.1 332.1C313.615 332.1 311.6 334.115 311.6 336.6C311.6 339.085 313.615 341.1 316.1 341.1Z" fill="#DD3142"/>
<path d="M306.2 360.2C308.685 360.2 310.7 358.185 310.7 355.7C310.7 353.215 308.685 351.2 306.2 351.2C303.715 351.2 301.7 353.215 301.7 355.7C301.7 358.185 303.715 360.2 306.2 360.2Z" fill="#DD3142"/>
<path opacity="0.69" d="M282.644 144.02C288.895 142.177 293.355 138.622 292.606 136.08C291.856 133.537 286.181 132.969 279.93 134.811C273.679 136.654 269.219 140.208 269.969 142.751C270.718 145.294 276.393 145.862 282.644 144.02Z" fill="#D19556"/>
<path opacity="0.69" d="M328.847 131.895C335.308 131.04 340.264 128.216 339.916 125.588C339.568 122.96 334.048 121.522 327.587 122.377C321.127 123.232 316.171 126.056 316.519 128.684C316.866 131.312 322.386 132.75 328.847 131.895Z" fill="#D19556"/>
<path d="M453.4 203.1C455.83 203.1 457.8 201.13 457.8 198.7C457.8 196.27 455.83 194.3 453.4 194.3C450.97 194.3 449 196.27 449 198.7C449 201.13 450.97 203.1 453.4 203.1Z" fill="#BCBCBC"/>
</g>
<defs>
<clipPath id="clip0_101_196">
<rect width="620.3" height="758.767" fill="white"/>
</clipPath>
</defs>
</svg>
