<svg width="543" height="200" viewBox="0 0 543 200" fill="none" xmlns="http://www.w3.org/2000/svg">
<path d="M111.087 1.82994C110.397 1.24996 109.638 0.799974 108.809 0.479984C107.976 0.163328 107.19 0 106.444 0H87.0995C84.8646 0 83.186 0.639979 82.0702 1.9166C80.9511 3.19323 80.3949 4.75985 80.3949 6.61645V54.2349C78.7896 52.495 77.0843 50.8983 75.2791 49.4484C73.4739 47.9984 71.4955 46.7485 69.3472 45.7052C67.1989 44.6619 64.8175 43.8652 62.2096 43.3119C59.6018 42.7619 56.7208 42.4853 53.5666 42.4853C45.7696 42.4853 38.5921 43.9519 32.0274 46.8818C25.4627 49.8117 19.8173 53.8449 15.0878 58.9814C10.3583 64.1179 6.66127 70.1544 3.99676 77.0875C1.33225 84.0239 0 91.5237 0 99.5901C0 107.6 1.33225 115.086 3.99676 122.049C6.66127 129.012 10.3583 135.062 15.0878 140.199C19.8173 145.335 25.4627 149.382 32.0274 152.342C38.5888 155.302 45.7696 156.782 53.5666 156.782C56.5476 156.782 59.3719 156.405 62.0364 155.652C64.701 154.898 67.1956 153.912 69.5171 152.692C71.8385 151.475 73.9868 150.095 75.9652 148.555C77.9436 147.019 79.7055 145.465 81.2542 143.899L82.8862 148.079C83.4025 149.182 83.8321 150.155 84.1752 150.995C84.5182 151.835 84.9046 152.532 85.3376 153.085C85.7672 153.638 86.2968 154.058 86.9296 154.348C87.5591 154.638 88.4484 154.785 89.5941 154.785H106.447C111.09 154.785 113.412 152.552 113.412 148.082V6.61978C113.412 5.63315 113.195 4.73651 112.765 3.91987C112.336 3.1099 111.776 2.41325 111.087 1.82994ZM82.9995 100.61C82.8263 104.263 82.0003 107.683 80.5248 110.87C79.0493 114.06 77.0943 116.826 74.6596 119.173C72.2282 121.519 69.3738 123.363 66.1032 124.696C62.8291 126.029 59.3386 126.696 55.6316 126.696C51.8647 126.696 48.4341 125.986 45.3366 124.566C42.2391 123.146 39.588 121.219 37.3864 118.783C35.1849 116.346 33.4896 113.463 32.3038 110.13C31.1148 106.797 30.522 103.217 30.522 99.3901C30.522 95.6802 31.1148 92.1437 32.3038 88.7838C33.4896 85.4206 35.1849 82.4673 37.3864 79.9141C39.588 77.3642 42.2358 75.3475 45.3366 73.8709C48.4341 72.391 51.868 71.6543 55.6316 71.6543C59.5118 71.6543 63.1189 72.3943 66.4495 73.8709C69.7802 75.3509 72.6745 77.3642 75.1392 79.9141C77.6005 82.4673 79.5256 85.4206 80.9178 88.7838C82.3067 92.147 83.0028 95.6836 83.0028 99.3901V100.61H82.9995Z" fill="#232931"/>
<path d="M229.198 56.7786C226.044 52.3787 222.054 48.9055 217.224 46.3556C212.391 43.809 206.679 42.5357 200.085 42.5357C196.671 42.5357 193.43 42.9257 190.366 43.709C187.298 44.4889 184.507 45.5022 181.993 46.7489C179.475 47.9922 177.25 49.4121 175.311 51.0021C173.373 52.5954 171.854 54.202 170.755 55.8219V6.4468C170.755 5.57682 170.565 4.64685 170.192 3.66022C169.816 2.67358 169.25 1.92027 168.5 1.39695C166.878 0.470314 165.403 0.00366211 164.074 0.00366211H143.834C141.369 0.00366211 139.59 0.613643 138.501 1.83361C137.412 3.05357 136.869 4.65018 136.869 6.62346V50.2488V50.6854V76.5879V77.1979V148.079C136.869 150.112 137.412 151.736 138.501 152.956C139.59 154.176 141.366 154.786 143.834 154.786H163.264C164.124 154.786 164.883 154.699 165.543 154.526C166.202 154.352 166.905 154.032 167.648 153.566C168.39 153.042 168.95 152.289 169.323 151.302C169.696 150.316 169.882 149.329 169.882 148.342V90.9575C170.059 88.3476 170.685 85.9743 171.768 83.8277C172.85 81.6845 174.196 79.8412 175.804 78.3046C177.413 76.7679 179.225 75.5813 181.243 74.7413C183.262 73.9014 185.323 73.4814 187.428 73.4814C189.886 73.4814 192.211 73.9314 194.403 74.828C196.597 75.728 198.513 76.9746 200.148 78.5679C201.787 80.1645 203.089 82.0311 204.051 84.1777C205.017 86.3243 205.5 88.6442 205.5 91.1342V148.612C205.5 151.046 205.967 152.686 206.906 153.526C207.842 154.366 209.567 154.786 212.082 154.786H232.532C234.613 154.786 236.132 154.219 237.088 153.089C238.044 151.956 238.52 150.289 238.52 148.082V91.0375C238.52 84.3644 237.754 78.0846 236.222 72.2014C234.693 66.3183 232.349 61.1784 229.198 56.7786Z" fill="#232931"/>
<path d="M289.902 46.2191C289.213 45.6091 288.467 45.1458 287.668 44.8258C286.865 44.5091 286.119 44.3491 285.433 44.3491H265.742C263.564 44.3491 261.958 45.0158 260.926 46.3491C259.893 47.6823 259.377 49.2756 259.377 51.1322V148.086C259.377 152.552 261.499 154.782 265.739 154.782H285.429C287.664 154.782 289.383 154.215 290.589 153.085C291.791 151.956 292.394 150.289 292.394 148.086V51.1322C292.394 50.0889 292.151 49.1623 291.664 48.349C291.178 47.539 290.589 46.829 289.902 46.2191Z" fill="#232931"/>
<path d="M420.75 46.7413C419.824 46.308 418.549 46.0913 416.93 46.0913H394.625C392.889 46.0913 391.527 46.4113 390.545 47.0479C389.562 47.6846 388.753 48.9312 388.113 50.7812L364.073 120.699L339.513 50.7812C339.05 49.4512 338.353 48.3346 337.431 47.4379C336.505 46.5413 335.319 46.0913 333.87 46.0913H312.434C309.367 46.0913 307.385 46.9179 306.489 48.5679C305.593 50.2178 305.607 52.2011 306.533 54.5177L347.932 156.051L334.307 191.487C334.19 191.603 334.03 191.863 333.83 192.27C333.627 192.673 333.527 193.253 333.527 194.007C333.527 195.973 334.004 197.467 334.96 198.48C335.915 199.493 337.694 200 340.299 200H360.346C361.851 200 363.123 199.523 364.166 198.567C365.208 197.61 365.931 196.353 366.334 194.787L366.074 195.22C366.884 193.02 368.069 189.894 369.631 185.84C371.194 181.787 373.029 177.081 375.144 171.727C377.255 166.371 379.583 160.494 382.131 154.095C384.676 147.698 387.324 141.022 390.072 134.075C392.819 127.125 395.64 120.049 398.535 112.839C401.426 105.629 404.277 98.5363 407.084 91.5599C409.889 84.5834 412.597 77.867 415.198 71.4105C417.802 64.9541 420.201 59.0042 422.402 53.5611C422.748 52.6911 422.982 51.8111 423.095 50.9112C423.211 50.0145 423.082 49.2045 422.705 48.4779C422.325 47.7546 421.673 47.1746 420.75 46.7413Z" fill="#232931"/>
<path d="M534.554 128.499C537.015 124.269 538.927 119.703 540.29 114.803C541.648 109.906 542.331 104.79 542.331 99.4566C542.331 91.4002 540.839 83.9071 537.855 76.9807C534.871 70.0542 530.817 64.0244 525.691 58.8946C520.565 53.7648 514.54 49.7349 507.619 46.8083C500.695 43.8817 493.298 42.4185 485.421 42.4185C480.092 42.4185 474.979 43.0851 470.086 44.4184C465.19 45.7517 460.627 47.635 456.401 50.0715C452.171 52.5081 448.334 55.448 444.887 58.8979C441.439 62.3478 438.485 66.1744 436.024 70.3776C433.563 74.5808 431.651 79.1473 430.289 84.0738C428.926 89.0003 428.247 94.1301 428.247 99.4633C428.247 104.796 428.926 109.913 430.289 114.809C431.647 119.709 433.559 124.276 436.024 128.506C438.485 132.739 441.439 136.579 444.887 140.029C448.334 143.479 452.171 146.435 456.401 148.898C460.627 151.362 465.19 153.262 470.086 154.595C474.979 155.928 480.092 156.595 485.421 156.595C490.69 156.595 495.746 155.928 500.582 154.595C505.418 153.262 509.951 151.365 514.181 148.898C518.407 146.435 522.997 143.479 526.444 140.029C529.888 136.572 532.089 132.732 534.554 128.499ZM461.597 107.76C461.597 109.193 460.424 110.37 458.989 110.37H457.25C455.818 110.37 454.642 109.196 454.642 107.76V90.3702C454.642 88.937 455.815 87.7603 457.25 87.7603H458.989C460.421 87.7603 461.597 88.9336 461.597 90.3702V107.76ZM475.499 119.933C475.499 121.366 474.326 122.543 472.891 122.543H471.152C469.72 122.543 468.544 121.369 468.544 119.933V79.0673C468.544 77.634 469.717 76.4574 471.152 76.4574H472.891C474.323 76.4574 475.499 77.6307 475.499 79.0673V119.933ZM489.401 112.976C489.401 114.409 488.228 115.586 486.793 115.586H485.054C483.622 115.586 482.446 114.413 482.446 112.976V84.2804C482.446 82.8472 483.619 81.6705 485.054 81.6705H486.793C488.225 81.6705 489.401 82.8438 489.401 84.2804V112.976ZM503.303 123.413C503.303 124.846 502.13 126.022 500.695 126.022H498.956C497.524 126.022 496.348 124.849 496.348 123.413V75.5874C496.348 74.1541 497.521 72.9775 498.956 72.9775H500.695C502.127 72.9775 503.303 74.1508 503.303 75.5874V123.413ZM517.205 107.76C517.205 109.193 516.032 110.37 514.597 110.37H512.858C511.426 110.37 510.25 109.196 510.25 107.76V90.3702C510.25 88.937 511.423 87.7603 512.858 87.7603H514.597C516.029 87.7603 517.205 88.9336 517.205 90.3702V107.76Z" fill="#232931"/>
<path d="M288.454 0.00366211H263.474C261.276 0.00366211 259.477 1.8036 259.477 4.00353V19.0031C259.477 21.203 261.276 23.0029 263.474 23.0029H267.471V33.2559C267.471 34.1459 268.547 34.5925 269.176 33.9626L282.459 23.0029H288.454C290.652 23.0029 292.451 21.203 292.451 19.0031V4.00353C292.451 1.8036 290.652 0.00366211 288.454 0.00366211ZM274.798 16.3365H266.472C265.552 16.3365 264.806 15.5898 264.806 14.6699C264.806 13.7499 265.552 13.0032 266.472 13.0032H274.798C275.717 13.0032 276.463 13.7499 276.463 14.6699C276.463 15.5898 275.721 16.3365 274.798 16.3365ZM283.125 9.67002H266.472C265.552 9.67002 264.806 8.92338 264.806 8.0034C264.806 7.08343 265.552 6.33679 266.472 6.33679H283.125C284.044 6.33679 284.79 7.08343 284.79 8.0034C284.79 8.92338 284.047 9.67002 283.125 9.67002Z" fill="#F73859"/>
</svg>
