<svg width="660" height="200" viewBox="0 0 660 200" fill="none" xmlns="http://www.w3.org/2000/svg">
<g clip-path="url(#clip0_218_33)">
<path d="M232.476 128.595V70.7052C232.476 70.0054 232.776 69.4055 233.276 68.9056C233.876 68.4056 234.576 68.1057 235.376 68.2057H251.673C256.472 68.0057 261.271 69.6054 264.97 72.7049C268.27 75.7043 269.969 80.4035 269.969 86.8023V87.6022C269.969 94.001 268.27 98.8002 264.87 101.8C261.071 104.899 256.272 106.599 251.373 106.299H239.775V128.595C239.775 129.395 239.375 130.095 238.675 130.494C237.075 131.394 235.176 131.394 233.576 130.494C232.876 130.095 232.476 129.395 232.476 128.595V128.595ZM239.675 100.3H251.373C254.472 100.5 257.572 99.4001 259.771 97.2005C261.971 94.7009 263.071 91.4015 262.771 88.0021V87.0023C263.071 83.7029 261.971 80.4035 259.771 77.804C257.472 75.7043 254.472 74.6045 251.373 74.8045H239.775L239.675 100.3Z" fill="#FF6C37"/>
<path d="M295.165 112.898V87.0023C295.165 80.5035 296.865 75.8043 300.164 72.8049C308.163 66.8059 319.161 66.8059 327.159 72.8049C330.559 75.8043 332.258 80.6034 332.258 87.0023V112.898C332.258 119.396 330.559 124.096 327.159 127.095C319.161 133.194 308.163 133.194 300.164 127.095C296.865 124.096 295.165 119.396 295.165 112.898ZM302.464 112.898C302.464 120.996 306.163 125.095 313.762 125.095C316.861 125.295 319.86 124.196 322.16 122.096C324.36 119.596 325.359 116.297 325.16 112.898V86.9023C325.459 83.6029 324.36 80.3035 322.16 77.704C319.86 75.6043 316.861 74.5045 313.762 74.7045C306.263 74.7045 302.564 78.7038 302.564 86.9023L302.464 112.898Z" fill="#FF6C37"/>
<path d="M357.854 122.296C357.854 121.296 358.254 120.396 358.853 119.596C359.353 118.897 360.053 118.397 360.953 118.297C361.753 118.397 362.453 118.797 362.953 119.396C363.753 120.096 364.552 120.896 365.452 121.796C366.652 122.896 368.052 123.696 369.552 124.196C371.551 124.995 373.751 125.295 375.85 125.295C379.05 125.495 382.149 124.496 384.649 122.596C386.848 120.596 388.048 117.597 387.848 114.597C387.948 111.698 386.948 108.998 384.949 106.899C382.949 104.899 380.55 103.399 377.85 102.4C375.051 101.4 372.351 100.3 369.452 99.1001C366.652 97.9004 364.252 96.1007 362.353 93.7011C360.353 91.0016 359.253 87.7022 359.453 84.3028C359.353 81.6033 359.953 78.9038 361.153 76.4042C362.153 74.3046 363.753 72.6049 365.752 71.4051C367.652 70.3053 369.652 69.5055 371.751 68.9056C373.951 68.4057 376.15 68.1057 378.35 68.1057C381.849 68.1057 385.249 68.6056 388.548 69.6054C391.748 70.7052 393.447 72.105 393.447 73.8047C393.447 74.7045 393.147 75.6044 392.547 76.4042C392.147 77.2041 391.248 77.804 390.348 77.804C389.048 77.404 387.748 76.9041 386.448 76.3042C383.949 75.2044 381.249 74.6045 378.45 74.7045C375.55 74.6045 372.551 75.3044 370.051 76.8042C367.852 78.3039 366.652 80.9034 366.852 83.6029C366.752 86.1025 367.752 88.5021 369.652 90.1018C371.751 91.8015 374.151 93.2012 376.75 94.0011C379.55 95.0009 382.349 96.1007 385.149 97.4004C387.948 98.8002 390.348 100.9 392.147 103.499C394.147 106.699 395.147 110.398 395.047 114.197C395.047 120.096 393.347 124.596 389.848 127.595C386.049 130.794 381.149 132.394 376.15 132.094C371.651 132.194 367.152 131.094 363.253 128.895C359.653 126.495 357.854 124.396 357.854 122.296V122.296Z" fill="#FF6C37"/>
<path d="M416.543 71.4052C416.543 70.6054 416.743 69.8055 417.243 69.2056C417.643 68.5058 418.343 68.2058 419.143 68.2058H454.136C454.936 68.2058 455.636 68.5058 456.036 69.2056C456.536 69.8055 456.736 70.6054 456.736 71.4052C456.736 72.2051 456.536 73.1049 456.036 73.8048C455.636 74.5047 454.936 74.8046 454.136 74.8046H440.439V128.595C440.439 129.395 440.039 130.095 439.339 130.495C437.739 131.394 435.84 131.394 434.24 130.495C433.54 130.095 433.14 129.395 433.14 128.595V74.8046H419.243C418.443 74.8046 417.743 74.5047 417.343 73.8048C416.843 73.1049 416.543 72.3051 416.543 71.4052V71.4052Z" fill="#FF6C37"/>
<path d="M481.331 128.595V71.9051C481.032 70.2054 482.231 68.6056 483.931 68.3057C484.331 68.2057 484.731 68.2057 485.031 68.3057C487.33 68.3057 489.23 69.8054 490.83 72.9049L504.327 98.8002L517.925 72.9049C519.625 69.9054 521.524 68.3057 523.724 68.3057C525.423 68.0058 527.023 69.2055 527.323 70.9052C527.423 71.2052 527.423 71.5051 527.323 71.8051V128.495C527.323 129.295 526.923 129.995 526.223 130.395C524.624 131.294 522.724 131.294 521.124 130.395C520.424 129.995 520.024 129.295 520.024 128.495V83.403L507.027 107.799C506.627 108.998 505.527 109.898 504.227 109.898C503.028 109.798 501.928 108.998 501.528 107.799L488.53 82.9031V128.495C488.53 129.295 488.13 129.995 487.43 130.395C486.73 130.894 485.831 131.194 485.031 131.194C484.131 131.194 483.231 130.994 482.531 130.495C481.731 130.195 481.231 129.395 481.331 128.595V128.595Z" fill="#FF6C37"/>
<path d="M552.019 128.195C552.019 127.995 552.119 127.695 552.219 127.495L569.815 70.8052C570.315 69.1055 571.815 68.3057 574.215 68.3057C576.614 68.3057 578.114 69.1055 578.614 70.8052L596.311 127.795V128.095V128.295C596.311 129.195 595.711 129.995 594.911 130.394C594.011 130.994 592.911 131.294 591.711 131.194C590.612 131.294 589.512 130.694 589.112 129.595L585.313 116.997H562.717L558.917 129.595C558.617 130.694 557.418 131.394 556.318 131.294C555.318 131.294 554.318 130.994 553.418 130.394C552.518 129.995 552.019 129.195 552.019 128.195V128.195ZM564.516 110.998H583.813L574.215 78.8038L564.516 110.998Z" fill="#FF6C37"/>
<path d="M621.206 128.595V70.7054C621.206 69.0057 622.406 68.2058 624.806 68.2058C625.905 68.2058 627.005 68.6057 627.905 69.3056C628.905 70.3054 629.805 71.5052 630.305 72.805L651.801 114.797V70.7054C651.801 69.9055 652.201 69.2056 652.9 68.9057C654.5 68.0059 656.4 68.0059 658 68.9057C658.699 69.3056 659.099 70.0055 659.099 70.7054V128.595C659.099 129.395 658.699 130.095 658 130.495C657.2 130.995 656.4 131.194 655.5 131.194C653.5 131.094 651.701 129.795 651.001 127.895L628.405 84.6029V128.595C628.405 129.395 628.005 130.095 627.405 130.495C625.805 131.394 623.906 131.394 622.306 130.495C621.606 130.095 621.206 129.395 621.206 128.595V128.595Z" fill="#FF6C37"/>
<path d="M199.182 112.698C206.181 57.9076 167.488 7.81662 112.798 0.817876C58.1076 -6.18086 7.81662 32.5122 0.817876 87.2023C-6.18086 141.892 32.5122 192.083 87.2023 199.182C141.992 206.181 192.083 167.488 199.182 112.698Z" fill="#FF6C37"/>
<path d="M136.094 64.2065L93.9011 106.399L82.0033 94.5011C123.496 53.0085 127.595 56.6079 136.094 64.2065V64.2065Z" fill="white"/>
<path d="M93.9011 107.399C93.6012 107.399 93.4012 107.299 93.2012 107.099L81.2034 95.2009C80.8035 94.801 80.8035 94.2011 81.2034 93.8012C123.396 51.6088 127.795 55.608 136.693 63.6066C136.893 63.8066 136.993 64.0065 136.993 64.3065C136.993 64.6064 136.893 64.8064 136.693 65.0064L94.501 107.099C94.401 107.299 94.1011 107.399 93.9011 107.399ZM83.403 94.501L93.9011 104.999L134.594 64.3065C127.195 57.7077 122.196 55.708 83.403 94.501V94.501Z" fill="#FF6C37"/>
<path d="M105.999 118.497L94.5011 106.999L136.693 64.8064C147.991 76.2043 131.095 94.701 105.999 118.497Z" fill="white"/>
<path d="M105.999 119.497C105.699 119.497 105.499 119.397 105.299 119.197L93.8013 107.699C93.6013 107.499 93.6013 107.299 93.6013 106.999C93.6013 106.699 93.7013 106.499 93.9013 106.299L136.094 64.1066C136.494 63.7067 137.093 63.7067 137.493 64.1066C140.093 66.5062 141.493 69.9055 141.393 73.4049C141.193 84.5029 128.595 98.6004 106.799 119.197C106.499 119.397 106.199 119.497 105.999 119.497V119.497ZM95.9009 106.999C102.3 113.498 104.999 116.097 105.999 117.097C122.796 101.1 139.093 84.7029 139.193 73.4049C139.293 70.8054 138.293 68.2058 136.594 66.2062L95.9009 106.999Z" fill="#FF6C37"/>
<path d="M82.2034 94.8009L90.7018 103.299C90.9018 103.499 90.9018 103.699 90.7018 103.899C90.6018 103.999 90.6018 103.999 90.5019 103.999L72.905 107.799C72.0052 107.899 71.2053 107.299 71.0054 106.399C70.9054 105.899 71.1054 105.399 71.4053 105.099L81.6035 94.9009C81.8034 94.7009 82.1034 94.6009 82.2034 94.8009Z" fill="white"/>
<path d="M72.605 108.798C71.1053 108.798 70.0055 107.599 70.0055 106.099C70.0055 105.399 70.3054 104.699 70.8054 104.199L81.0035 94.0012C81.6034 93.5012 82.4033 93.5012 83.0032 94.0012L91.5016 102.5C92.1015 103 92.1015 103.899 91.5016 104.499C91.3017 104.699 91.1017 104.799 90.8018 104.899L73.2049 108.699C73.005 108.699 72.805 108.798 72.605 108.798V108.798ZM81.9034 95.9008L72.1051 105.699C71.9051 105.899 71.8052 106.199 72.0051 106.499C72.1051 106.799 72.4051 106.899 72.705 106.799L89.202 103.199L81.9034 95.9008Z" fill="#FF6C37"/>
<path d="M158.39 40.8107C151.991 34.6118 141.693 34.8118 135.494 41.3106C129.295 47.8095 129.495 58.0076 135.994 64.2065C141.293 69.3056 149.291 70.2054 155.59 66.4061L144.192 55.0082L158.39 40.8107Z" fill="white"/>
<path d="M147.192 69.7056C137.693 69.7056 129.995 62.007 129.995 52.5087C129.995 43.0104 137.693 35.3118 147.192 35.3118C151.591 35.3118 155.89 37.0115 159.089 40.1109C159.289 40.3109 159.389 40.5108 159.389 40.8108C159.389 41.1107 159.289 41.3107 159.089 41.5106L145.592 55.0082L156.19 65.6063C156.59 66.0062 156.59 66.6061 156.19 67.0061C156.09 67.106 156.09 67.106 155.99 67.206C153.39 68.8057 150.291 69.7056 147.192 69.7056ZM147.192 37.4114C138.793 37.4114 131.994 44.2102 132.094 52.6086C132.094 61.0071 138.893 67.8059 147.292 67.7059C149.591 67.7059 151.891 67.206 153.99 66.1062L143.492 55.7081C143.292 55.5081 143.192 55.3082 143.192 55.0082C143.192 54.7083 143.292 54.5083 143.492 54.3083L156.89 40.9108C154.19 38.6112 150.791 37.4114 147.192 37.4114V37.4114Z" fill="#FF6C37"/>
<path d="M158.69 41.1106L158.49 40.9106L144.192 55.0081L155.49 66.3061C156.59 65.6062 157.69 64.8063 158.59 63.9065C164.989 57.6076 164.989 47.4095 158.69 41.1106V41.1106Z" fill="white"/>
<path d="M155.59 67.4061C155.29 67.4061 155.09 67.3061 154.89 67.1061L143.492 55.7082C143.292 55.5082 143.193 55.3082 143.193 55.0083C143.193 54.7084 143.292 54.5084 143.492 54.3084L157.69 40.111C158.09 39.7111 158.69 39.7111 159.09 40.111L159.39 40.3109C166.088 47.0097 166.088 57.8078 159.49 64.6066C158.49 65.6064 157.39 66.5062 156.19 67.2061C155.89 67.3061 155.69 67.4061 155.59 67.4061V67.4061ZM145.592 55.0083L155.69 65.1065C156.49 64.6066 157.29 63.9067 157.89 63.3068C163.589 57.6078 163.889 48.3095 158.39 42.3106L145.592 55.0083Z" fill="#FF6C37"/>
<path d="M137.793 66.0062C135.394 63.6067 131.494 63.6067 129.095 66.0062L91.4015 103.699L97.7004 109.998L137.593 75.0046C140.193 72.805 140.393 68.9057 138.193 66.3062C137.993 66.2062 137.893 66.1062 137.793 66.0062V66.0062Z" fill="white"/>
<path d="M97.6003 110.998C97.3004 110.998 97.1004 110.898 96.9004 110.698L90.6016 104.399C90.2017 103.999 90.2017 103.399 90.6016 102.999L128.295 65.3062C131.094 62.5067 135.593 62.5067 138.393 65.3062C141.192 68.1057 141.192 72.6049 138.393 75.4043C138.293 75.5043 138.193 75.6043 138.093 75.7043L98.2002 110.698C98.1002 110.898 97.9003 110.998 97.6003 110.998V110.998ZM92.8012 103.699L97.7003 108.598L136.893 74.2046C139.093 72.4049 139.293 69.1055 137.493 66.9059C135.693 64.7063 132.394 64.5063 130.194 66.306C130.094 66.406 129.994 66.5059 129.795 66.6059L92.8012 103.699Z" fill="#FF6C37"/>
<path d="M62.507 146.592C62.107 146.792 61.9071 147.191 62.0071 147.591L63.7067 154.79C64.1067 155.79 63.5068 156.99 62.407 157.29C61.6071 157.59 60.7073 157.29 60.2074 156.69L49.2094 145.792L85.1029 109.898L97.5007 110.098L105.899 118.497C103.9 120.196 91.8017 131.894 62.507 146.592V146.592Z" fill="white"/>
<path d="M61.7069 158.29C60.907 158.29 60.1072 157.99 59.6073 157.39L48.7092 146.492C48.5093 146.292 48.4093 146.092 48.4093 145.792C48.4093 145.492 48.5093 145.292 48.7092 145.092L84.6028 109.198C84.8027 108.998 85.1027 108.898 85.3027 108.898L97.7004 109.098C98.0004 109.098 98.2003 109.198 98.4003 109.398L106.799 117.797C106.999 117.997 107.099 118.297 107.099 118.597C107.099 118.897 106.999 119.097 106.699 119.297L105.999 119.896C95.4008 129.195 81.0034 138.493 63.1067 147.392L64.8064 154.49C65.1063 155.79 64.5064 157.19 63.3066 157.89C62.7067 158.19 62.2068 158.29 61.7069 158.29ZM50.7089 145.792L61.007 155.99C61.307 156.49 61.9069 156.69 62.4068 156.39C62.9067 156.09 63.1067 155.49 62.8067 154.99L61.107 147.791C60.907 146.892 61.307 146.092 62.1068 145.692C79.8036 136.793 94.1011 127.595 104.599 118.497L97.2005 111.098L85.7026 110.898L50.7089 145.792Z" fill="#FF6C37"/>
<path d="M40.7107 154.39L49.3092 145.792L62.1069 158.59L41.7105 157.19C40.8107 157.09 40.2108 156.29 40.3108 155.39C40.3108 154.99 40.4108 154.59 40.7107 154.39V154.39Z" fill="white"/>
<path d="M62.1071 159.489L41.6108 158.089C40.1111 157.99 39.1112 156.69 39.2112 155.19C39.3112 154.59 39.5112 153.99 40.0111 153.59L48.6095 144.992C49.0095 144.592 49.6094 144.592 50.0093 144.992L62.807 157.79C63.1069 158.089 63.2069 158.489 63.0069 158.889C62.807 159.289 62.507 159.489 62.1071 159.489V159.489ZM49.3094 147.191L41.4108 155.09C41.1109 155.29 41.1109 155.79 41.4108 155.99C41.5108 156.09 41.6108 156.19 41.8108 156.19L59.5076 157.39L49.3094 147.191Z" fill="#FF6C37"/>
<path d="M81.6035 114.497C81.0036 114.497 80.6036 113.998 80.6036 113.498C80.6036 113.198 80.7036 112.998 80.9036 112.798L90.6018 103.1C91.0018 102.7 91.6017 102.7 92.0016 103.1L98.3005 109.398C98.6004 109.698 98.7004 109.998 98.6004 110.398C98.5004 110.698 98.2005 110.998 97.8005 111.098L81.8034 114.497C81.7034 114.497 81.6035 114.497 81.6035 114.497V114.497ZM91.3017 105.199L84.7029 111.798L95.501 109.498L91.3017 105.199Z" fill="#FF6C37"/>
<path d="M97.5006 110.098L86.5026 112.498C85.7028 112.698 84.9029 112.198 84.7029 111.398C84.6029 110.898 84.7029 110.398 85.1029 109.998L91.2018 103.899L97.5006 110.098Z" fill="white"/>
<path d="M86.3023 113.498C84.9025 113.498 83.8027 112.398 83.8027 110.998C83.8027 110.298 84.1027 109.698 84.5026 109.198L90.6015 103.1C91.0014 102.7 91.6013 102.7 92.0013 103.1L98.3001 109.398C98.6001 109.698 98.7001 109.998 98.6001 110.398C98.5001 110.698 98.2001 110.998 97.8002 111.098L86.8022 113.498C86.6022 113.498 86.4023 113.498 86.3023 113.498V113.498ZM91.3014 105.199L85.9023 110.598C85.7024 110.798 85.7024 110.998 85.8024 111.198C85.9024 111.398 86.1023 111.498 86.4023 111.498L95.6006 109.498L91.3014 105.199Z" fill="#FF6C37"/>
<path d="M158.79 50.7088C158.59 50.1089 157.89 49.809 157.29 50.009C156.69 50.2089 156.39 50.9088 156.59 51.5087C156.59 51.6087 156.69 51.7087 156.69 51.8086C157.29 53.0084 157.09 54.5081 156.29 55.6079C155.89 56.1079 155.99 56.8077 156.39 57.2077C156.89 57.6076 157.59 57.5076 157.99 57.0077C159.489 55.108 159.789 52.7085 158.79 50.7088V50.7088Z" fill="#FF6C37"/>
</g>
<defs>
<clipPath id="clip0_218_33">
<rect width="659.099" height="200" fill="white"/>
</clipPath>
</defs>
</svg>
