<svg width="667" height="200" viewBox="0 0 667 200" fill="none" xmlns="http://www.w3.org/2000/svg">
<path d="M96 75.3333C96 86.6667 86.6667 96 75.3333 96C64 96 54.6667 86.6667 54.6667 75.3333C54.6667 64 64 54.6667 75.3333 54.6667C86.6667 54.6667 96 64 96 75.3333V75.3333ZM75.3333 104C64 104 54.6667 113.333 54.6667 124.667C54.6667 136 64 145.333 75.3333 145.333C86.6667 145.333 96 136 96 124.667C96 113.333 86.6667 104 75.3333 104V104ZM200 100C200 155.333 155.333 200 100 200C44.6667 200 0 155.333 0 100C0 44.6667 44.6667 0 100 0C155.333 0 200 44.6667 200 100ZM173.333 100C173.333 59.3333 140.667 26.6667 100 26.6667C59.3333 26.6667 26.6667 59.3333 26.6667 100C26.6667 140.667 59.3333 173.333 100 173.333C140.667 173.333 173.333 140.667 173.333 100ZM124.667 104C113.333 104 104 113.333 104 124.667C104 136 113.333 145.333 124.667 145.333C136 145.333 145.333 136 145.333 124.667C145.333 113.333 136 104 124.667 104ZM124.667 54.6667C113.333 54.6667 104 64 104 75.3333C104 86.6667 113.333 96 124.667 96C136 96 145.333 86.6667 145.333 75.3333C145.333 64 136 54.6667 124.667 54.6667ZM468.667 39.3333C469.333 39.3333 470 40 470.667 40.6667V62C470.667 63.3333 469.333 64 468.667 64H433.333C432 64 431.333 62.6667 431.333 62V41.3333C431.333 40 432.667 39.3333 433.333 39.3333H468.667V39.3333ZM468 69.3333H400C399.333 69.3333 398 70 398 71.3333L389.333 104.667L388.667 106.667L378 71.3333C378 70.6667 376.667 69.3333 376 69.3333H349.333C348.667 69.3333 347.333 70 347.333 71.3333L337.333 104.667L336.667 106.667L336 104.667L332 88L328 71.3333C328 70.6667 326.667 69.3333 326 69.3333H272.667V40.6667C272.667 40 271.333 38.6667 270 39.3333L236.667 50C235.333 50 234.667 50.6667 234.667 52V70H226C225.333 70 224 70.6667 224 72V97.3333C224 98 224.667 99.3333 226 99.3333H234.667V130.667C234.667 152.667 246.667 162.667 268.667 162.667C278 162.667 286.667 160.667 292.667 157.333V130.667C292.667 129.333 291.333 128.667 290.667 129.333C287.333 130.667 284 131.333 281.333 131.333C275.333 131.333 272 128.667 272 122V99.3333H291.333C292 99.3333 293.333 98.6667 293.333 97.3333V76L318.667 160C318.667 160.667 320 162 320.667 162H348.667C349.333 162 350.667 161.333 350.667 160L362.667 122.667L368.667 142L374 160C374 160.667 375.333 162 376 162H404C404.667 162 406 161.333 406 160L431.333 76V160C431.333 160.667 432 162 433.333 162H467.333C468 162 469.333 161.333 469.333 160V71.3333C469.333 70.6667 468.667 69.3333 468 69.3333V69.3333ZM512.667 39.3333H478.667C478 39.3333 476.667 40 476.667 41.3333V159.333C476.667 160 477.333 161.333 478.667 161.333H512.667C513.333 161.333 514.667 160.667 514.667 159.333V40.6667C514.667 40 514 39.3333 512.667 39.3333V39.3333ZM558 39.3333H522.667C522 39.3333 520.667 40 520.667 41.3333V62C520.667 62.6667 521.333 64 522.667 64H558C558.667 64 560 63.3333 560 62V40.6667C560 40 559.333 39.3333 558 39.3333V39.3333ZM557.333 69.3333H523.333C522.667 69.3333 521.333 70 521.333 71.3333V158.667C521.333 159.333 522 160.667 523.333 160.667H557.333C558 160.667 559.333 160 559.333 158.667V71.3333C559.333 70.6667 558.667 69.3333 557.333 69.3333ZM664.667 114.667C664.667 140 643.333 162 613.333 162C584 162 562.667 140 562.667 114.667C562.667 89.3333 584 67.3333 614 67.3333C643.333 67.3333 664.667 89.3333 664.667 114.667V114.667ZM628.667 115.333C628.667 106 622 98.6667 614 99.3333C605.333 99.3333 599.333 106.667 599.333 115.333C599.333 124 606 131.333 614 131.333C622.667 131.333 628.667 124 628.667 115.333Z" fill="#F22F46"/>
</svg>
